<svg width="87" height="36" viewBox="0 0 87 36" fill="none" xmlns="http://www.w3.org/2000/svg">
<path d="M0 34.48L12.92 1.48H14.96L27.88 34.48H25.52L21.2 23.22H6.7L2.36 34.48H0ZM7.44 21.28H20.46L13.94 4.32001L7.44 21.28Z" fill="white"/>
<path d="M35.0859 34.48V1.48H42.9859C45.1193 1.48 46.9593 1.85334 48.5059 2.6C50.0526 3.33334 51.2459 4.38667 52.0859 5.76C52.9393 7.12 53.3659 8.74667 53.3659 10.64C53.3659 12.44 52.9859 14.02 52.2259 15.38C51.4659 16.74 50.3926 17.8267 49.0059 18.64C47.6326 19.4533 45.9993 19.9267 44.1059 20.06L55.1259 34.48H52.3459L41.5659 20.22H37.2659V34.48H35.0859ZM37.2659 18.28H42.5859C44.3326 18.28 45.8459 17.9667 47.1259 17.34C48.4193 16.7133 49.4193 15.8333 50.1259 14.7C50.8326 13.5667 51.1859 12.2267 51.1859 10.68C51.1859 8.38667 50.4193 6.58 48.8859 5.26C47.3526 3.94 45.2526 3.28 42.5859 3.28H37.2659V18.28Z" fill="white"/>
<path d="M75.7487 35.12C73.2821 35.12 70.9954 34.6867 68.8888 33.82C66.7954 32.9533 64.9688 31.7467 63.4088 30.2C61.8488 28.64 60.6354 26.8267 59.7688 24.76C58.9154 22.68 58.4888 20.4267 58.4888 18C58.4888 15.5733 58.9154 13.3267 59.7688 11.26C60.6354 9.18001 61.8488 7.36667 63.4088 5.82C64.9688 4.26 66.7954 3.04667 68.8888 2.18C70.9954 1.31334 73.2821 0.880005 75.7487 0.880005C77.8288 0.880005 79.7688 1.18667 81.5688 1.8C83.3821 2.41334 84.9954 3.26667 86.4088 4.36001L85.3088 6.16001C84.0688 5.14667 82.6421 4.37334 81.0288 3.84C79.4154 3.30667 77.7021 3.04001 75.8888 3.04001C73.6888 3.04001 71.6687 3.42667 69.8288 4.20001C68.0021 4.96001 66.4154 6.02001 65.0687 7.38001C63.7354 8.74001 62.7021 10.3267 61.9688 12.14C61.2487 13.9533 60.8888 15.9067 60.8888 18C60.8888 20.0933 61.2487 22.0467 61.9688 23.86C62.7021 25.6733 63.7354 27.26 65.0687 28.62C66.4154 29.98 68.0021 31.0467 69.8288 31.82C71.6687 32.58 73.6888 32.96 75.8888 32.96C77.7021 32.96 79.4154 32.6933 81.0288 32.16C82.6421 31.6267 84.0688 30.8533 85.3088 29.84L86.4088 31.64C85.0088 32.72 83.4021 33.5733 81.5888 34.2C79.7887 34.8133 77.8421 35.12 75.7487 35.12Z" fill="white"/>
</svg>
